<svg xmlns="http://www.w3.org/2000/svg" xmlns:xlink="http://www.w3.org/1999/xlink" id="Layer_1" width="595.3" height="841.9" x="0" style="enable-background:new 0 0 595.3 841.9" y="0" version="1.1" viewBox="0 0 595.3 841.9" xml:space="preserve"><style type="text/css">.st0{fill:#010202}</style><g><path d="M304,445l8.8,5.3l-1.7-17.6l-4.5-4.5c0.9-2.4,1.7-5.7,1.8-10.4c0,0,0-0.9,0-1.2c0-15.9-10.6-28.8-11.4-28.8 c0,0,0,0-0.1,0c0,0-0.1,0-0.1,0c-0.8,0-11.4,13-11.4,28.8c0,0.3,0,1.2,0,1.2c0.1,4.7,0.9,8.1,1.8,10.4l-4.4,4.4l-1.7,17.6l8.8-5.3 L304,445z M297,401c2.2,0,4,1.8,4,4c0,2.2-1.8,4-4,4c-2.2,0-4-1.8-4-4C293,402.7,294.8,401,297,401z" class="st0"/><g><polygon points="294.4 451.2 299.6 451.2 304.1 447.7 290 447.7" class="st0"/></g></g></svg>